<svg xmlns="http://www.w3.org/2000/svg" width="800" height="800" viewBox="0 0 800 800" version="1.1"><path d="M 413 140.893 C 413 141.907, 416.046 143.288, 416.743 142.590 C 416.995 142.339, 416.904 141.653, 416.541 141.067 C 415.743 139.776, 413 139.641, 413 140.893 M 533 192.500 C 533 194.425, 533.450 196, 534 196 C 534.550 196, 535 194.425, 535 192.500 C 535 190.575, 534.550 189, 534 189 C 533.450 189, 533 190.575, 533 192.500 M 533 208.559 C 533 210.010, 533.433 210.851, 534 210.500 C 534.550 210.160, 535 209.009, 535 207.941 C 535 206.873, 534.550 206, 534 206 C 533.450 206, 533 207.152, 533 208.559 M 499.500 233 C 499.138 233.585, 500.176 234, 502 234 C 503.824 234, 504.862 233.585, 504.500 233 C 504.160 232.450, 503.035 232, 502 232 C 500.965 232, 499.840 232.450, 499.500 233 M 192.500 253 C 192.149 253.567, 192.990 254, 194.441 254 C 195.848 254, 197 253.550, 197 253 C 197 252.450, 196.127 252, 195.059 252 C 193.991 252, 192.840 252.450, 192.500 253 M 230 255.441 C 230 257.398, 230.450 259, 231 259 C 231.550 259, 232 257.677, 232 256.059 C 232 254.441, 231.550 252.840, 231 252.500 C 230.405 252.132, 230 253.323, 230 255.441 M 533 273.941 C 533 276.109, 533.450 278.160, 534 278.500 C 534.611 278.878, 535 277.344, 535 274.559 C 535 272.052, 534.550 270, 534 270 C 533.450 270, 533 271.773, 533 273.941 M 279.607 272.582 C 278.749 274.817, 278.817 275, 280.500 275 C 281.333 275, 282 274.111, 282 273 C 282 270.616, 280.464 270.347, 279.607 272.582 M 324.496 273.007 C 323.741 274.228, 326.484 275.437, 327.952 274.530 C 328.528 274.173, 329 273.459, 329 272.941 C 329 271.680, 325.282 271.734, 324.496 273.007 M 312.667 332.667 C 311.629 333.704, 311.883 337, 313 337 C 313.550 337, 314 335.875, 314 334.500 C 314 331.882, 313.769 331.564, 312.667 332.667 M 533 337.500 C 533 339.975, 533.450 342, 534 342 C 534.550 342, 535 339.975, 535 337.500 C 535 335.025, 534.550 333, 534 333 C 533.450 333, 533 335.025, 533 337.500 M 188.392 524.573 C 188.027 526.027, 188.237 527.637, 188.873 528.273 C 189.709 529.109, 190 528.444, 190 525.700 C 190 521.391, 189.312 520.909, 188.392 524.573 M 576 528.441 C 576 530.334, 576.450 532.160, 577 532.500 C 577.604 532.873, 578 531.510, 578 529.059 C 578 526.827, 577.550 525, 577 525 C 576.450 525, 576 526.548, 576 528.441 M 472.667 543.667 C 472.300 544.033, 472 545.190, 472 546.238 C 472 547.931, 472.167 547.976, 473.500 546.643 C 474.325 545.818, 475 544.661, 475 544.071 C 475 542.874, 473.687 542.646, 472.667 543.667 M 668.548 556.250 C 668.129 557.212, 668.129 558.788, 668.548 559.750 C 669.273 561.417, 669.329 561.417, 669.728 559.750 C 669.958 558.788, 669.958 557.212, 669.728 556.250 C 669.329 554.583, 669.273 554.583, 668.548 556.250 M 526.954 575.086 C 526.340 576.233, 526.089 577.422, 526.395 577.728 C 527.221 578.554, 530 575.971, 530 574.378 C 530 572.307, 528.220 572.721, 526.954 575.086 M 358.676 653.402 C 358.111 654.874, 358.758 656, 360.167 656 C 360.625 656, 361 655.100, 361 654 C 361 651.707, 359.477 651.315, 358.676 653.402" stroke="none" fill="#c62c28" fill-rule="evenodd"/><path d="M 367.500 128.092 C 364.750 128.537, 359.466 129.356, 355.759 129.911 C 352.051 130.466, 348.143 131.388, 347.074 131.960 C 346.006 132.532, 344.257 133, 343.188 133 C 336.019 133, 310.106 144.136, 300.071 151.530 C 291.298 157.995, 281.925 167.847, 279.646 173 C 279.281 173.825, 278.049 176.046, 276.908 177.936 C 274.142 182.515, 271.141 190.681, 269.828 197.196 C 268.031 206.110, 267.674 220.022, 269.170 222.818 C 270.412 225.137, 270.250 225.474, 266.496 228.390 C 258.231 234.808, 252.241 241.760, 250.526 246.922 C 249.606 249.693, 249.129 252.832, 249.467 253.898 C 251.259 259.541, 257.947 264, 264.622 264 C 266.480 264, 268 264.277, 268 264.615 C 268 264.954, 266.376 268.666, 264.391 272.865 C 260.133 281.874, 259.633 287.354, 262.864 289.617 C 264.039 290.440, 265 291.961, 265 292.998 C 265 294.034, 265.450 295.160, 266 295.500 C 266.550 295.840, 267 297.059, 267 298.209 C 267 301.701, 271.830 310.428, 276.035 314.534 C 281.922 320.282, 281.454 322.620, 273.142 328.996 C 266.689 333.946, 265 338.723, 265 352.024 C 265 358.184, 265.433 363.149, 266 363.500 C 266.550 363.840, 267 365.059, 267 366.209 C 267 373.082, 277.552 385.953, 286.360 389.823 C 299.263 395.493, 317.843 400.066, 342.112 403.545 C 357.418 405.739, 362.607 406, 390.870 406.001 C 423.905 406.003, 428.933 405.610, 462.500 400.416 C 488.040 396.463, 507.951 391.407, 516.228 386.772 C 520.408 384.432, 526.975 378.899, 529.496 375.595 C 530.868 373.796, 532.450 369.899, 533.012 366.936 C 533.574 363.972, 534.926 359.835, 536.017 357.743 C 538.215 353.527, 538.558 351, 536.933 351 C 536.336 351, 536.133 350.155, 536.473 349.084 C 536.808 348.030, 536.633 346.891, 536.084 346.552 C 535.536 346.213, 535.339 345.279, 535.647 344.476 C 535.964 343.651, 535.490 342.742, 534.557 342.384 C 533.265 341.888, 532.955 340.581, 533.126 336.350 C 533.318 331.612, 532.984 330.556, 530.400 327.725 C 525.914 322.811, 523 318.283, 523 316.228 C 523 315.208, 524.382 313.052, 526.070 311.437 C 530.841 306.873, 533.240 302.319, 533.180 297.943 C 533.150 295.774, 533.547 294, 534.063 294 C 535.326 294, 535.266 279.283, 534 278.500 C 532.556 277.607, 532.763 270.262, 534.250 269.662 C 535.250 269.259, 535.250 269.142, 534.250 269.079 C 533.563 269.036, 533 268.325, 533 267.500 C 533 265.750, 534.658 265.474, 535.211 267.132 C 535.474 267.923, 536.483 267.802, 538.559 266.728 C 541.343 265.288, 545.050 259.026, 545.450 255.087 C 545.538 254.214, 546.086 252.375, 546.667 251 C 548.846 245.843, 549.917 241.674, 549.314 240.699 C 548.960 240.127, 549.190 239.999, 549.845 240.405 C 551.600 241.489, 551.277 236.870, 549.322 232.904 C 547.169 228.536, 534.379 215.648, 533.027 216.483 C 531.595 217.369, 531.742 216.399, 533.583 212.840 C 534.453 211.157, 534.678 210.081, 534.083 210.449 C 533.414 210.862, 533 210.141, 533 208.559 C 533 207.152, 533.450 206, 534 206 C 534.550 206, 535 203.750, 535 201 C 535 197.950, 534.559 196, 533.870 196 C 533.122 196, 532.912 194.475, 533.249 191.484 C 533.529 189.001, 533.344 186.713, 532.838 186.400 C 532.332 186.087, 532.177 185.017, 532.493 184.021 C 532.817 183.003, 532.354 181.497, 531.437 180.580 C 530.540 179.683, 530.041 178.337, 530.327 177.589 C 530.614 176.841, 530.106 175.168, 529.198 173.872 C 528.289 172.575, 527.457 170.909, 527.349 170.170 C 527.025 167.966, 521.828 160.995, 516.721 155.914 C 509.044 148.275, 488.776 139.256, 469 134.678 C 453.774 131.154, 451.178 130.633, 445 129.868 C 441.425 129.425, 435.350 128.622, 431.500 128.083 C 423.204 126.921, 374.681 126.928, 367.500 128.092 M 413 140.933 C 413 141.446, 413.899 142.151, 414.998 142.499 C 418.077 143.477, 418.557 147.409, 416.030 150.958 C 414.198 153.530, 413.218 153.995, 409.682 153.969 C 403.267 153.920, 400.656 149.373, 403.385 143 C 403.934 141.719, 402.755 141.548, 395.298 141.830 C 387.637 142.119, 386.272 142.456, 384.148 144.580 C 381.323 147.405, 376.527 147.787, 373.887 145.398 C 372.515 144.156, 371.007 143.949, 367.173 144.476 C 363.009 145.049, 362.305 145.449, 362.713 147.009 C 362.979 148.028, 363.828 149.104, 364.599 149.399 C 366.627 150.178, 366.319 153.744, 363.932 157.096 C 361.123 161.040, 355.964 161.143, 352.426 157.325 C 351.062 155.854, 350.353 154.392, 350.850 154.075 C 351.347 153.759, 351.697 152.044, 351.627 150.264 C 351.527 147.730, 351.139 147.143, 349.834 147.555 C 348.918 147.845, 347.874 147.605, 347.514 147.023 C 347.092 146.339, 345.996 146.644, 344.419 147.885 C 343.076 148.942, 339.731 150.345, 336.985 151.004 C 334.240 151.662, 331.744 152.606, 331.438 153.100 C 331.132 153.595, 330.088 154, 329.117 154 C 326.454 154, 312.221 161.623, 306.079 166.338 C 293.470 176.018, 285.869 190.349, 284.512 207 C 283.437 220.181, 284.234 221.158, 299.714 225.646 C 320.962 231.806, 377.231 234.068, 417.358 230.375 C 432.523 228.980, 435.349 228.941, 436.093 230.116 C 436.587 230.896, 436.976 231.012, 436.985 230.381 C 437.004 228.960, 453.584 226.767, 457.853 227.621 C 459.745 227.999, 461 227.841, 461 227.225 C 461 226.105, 465.238 225.075, 480.500 222.487 C 486 221.554, 491.232 220.418, 492.127 219.964 C 493.022 219.509, 495.497 218.851, 497.627 218.501 C 506.119 217.108, 517.857 211.346, 518.664 208.173 C 519.778 203.791, 518.345 185.662, 516.635 182.500 C 515.743 180.850, 515.010 179.096, 515.006 178.603 C 514.999 177.550, 508.603 169.556, 505.002 166.099 C 499.910 161.211, 474.058 150.458, 478.800 155.200 C 480.594 156.994, 480.187 162.196, 478.053 164.754 C 475.834 167.414, 472.134 167.945, 468.682 166.097 C 464.135 163.664, 464.422 155.450, 469.141 152.924 C 471.216 151.814, 470.913 151.585, 464.939 149.762 C 461.398 148.681, 458.350 147.392, 458.167 146.898 C 457.983 146.404, 457.373 146, 456.810 146 C 456.247 146, 456.072 146.745, 456.421 147.655 C 457.484 150.425, 453.242 154, 448.894 154 C 445.888 154, 444.723 153.419, 443.068 151.096 C 441.931 149.498, 441 147.501, 441 146.657 C 441 145.579, 439.587 144.941, 436.250 144.512 C 433.637 144.176, 429.613 143.473, 427.307 142.950 C 425.001 142.428, 421.765 142, 420.116 142 C 418.467 142, 416.840 141.550, 416.500 141 C 415.720 139.738, 413 139.685, 413 140.933 M 426 149.699 C 423.646 150.549, 421.047 154.271, 421.022 156.827 C 421.010 158.107, 422.361 160.515, 424.025 162.179 C 426.474 164.628, 427.570 165.075, 429.775 164.524 C 434.525 163.339, 435.885 161.346, 435.464 156.184 C 434.958 149.977, 431.602 147.677, 426 149.699 M 380.545 152.545 C 375.470 157.621, 378.468 165.400, 385.500 165.400 C 392.481 165.400, 395.569 157.478, 390.545 152.455 C 387.392 149.301, 383.757 149.334, 380.545 152.545 M 209.200 154.200 C 208.540 154.860, 208 157.358, 208 159.751 C 208 163.500, 208.519 164.579, 211.750 167.546 C 213.813 169.441, 216.063 170.993, 216.750 170.995 C 217.438 170.998, 218 171.361, 218 171.803 C 218 172.245, 220.813 174.586, 224.250 177.007 C 227.688 179.427, 230.950 181.787, 231.500 182.251 C 243.986 192.789, 250.870 193.706, 253.473 185.176 C 254.823 180.750, 252.128 177.716, 237.332 167 C 229.358 161.225, 221.972 155.713, 220.917 154.750 C 218.686 152.713, 211.045 152.355, 209.200 154.200 M 572.069 158.750 C 569.166 161.912, 564.207 167.200, 561.049 170.500 C 550.105 181.935, 547 186.003, 547 188.908 C 547 192.516, 549.928 195.836, 553.794 196.609 C 557.202 197.290, 558.189 196.415, 578.404 174.761 C 587.556 164.958, 588.308 163.846, 588.308 160.114 C 588.308 154.701, 586.692 153, 581.551 153 C 577.711 153, 576.889 153.499, 572.069 158.750 M 329.452 170.646 C 325.341 175.082, 326.677 180.786, 332.331 182.936 C 339.760 185.760, 345.288 176.197, 339.545 170.455 C 336.330 167.239, 332.543 167.311, 329.452 170.646 M 399.455 172.455 C 396.390 175.520, 396.057 181.837, 398.829 184.345 C 401.754 186.992, 407.471 186.487, 409.927 183.365 C 412.799 179.714, 412.527 176.374, 409.077 172.923 C 405.509 169.356, 402.691 169.218, 399.455 172.455 M 577.495 204.345 C 569.798 209.484, 562.910 214.401, 562.189 215.271 C 561.427 216.189, 561.008 218.622, 561.189 221.076 C 561.549 225.969, 565.296 229.676, 568.769 228.573 C 571.552 227.690, 599.155 209.155, 600.689 207.139 C 602.627 204.593, 602.265 199.265, 600 197 C 596.116 193.116, 592.584 194.269, 577.495 204.345 M 195.452 199.646 C 190.192 205.322, 193.161 210.777, 203.500 214.436 C 207.350 215.799, 212.975 217.887, 216 219.076 C 224.322 222.348, 230.795 223.616, 232.807 222.367 C 235.915 220.437, 237.262 216.324, 236.019 212.558 C 234.942 209.295, 234.313 208.955, 218.493 203.087 C 209.468 199.739, 201.144 197, 199.994 197 C 198.845 197, 196.801 198.191, 195.452 199.646 M 517 228.500 C 515.625 229.286, 513.768 229.945, 512.872 229.965 C 511.977 229.984, 510.627 230.749, 509.872 231.664 C 508.609 233.197, 509.007 233.276, 514.897 232.664 C 518.415 232.299, 522.802 232, 524.647 232 C 529.022 232, 528.855 230.917, 524.147 228.750 C 519.665 226.687, 520.142 226.704, 517 228.500 M 499.500 233 C 499.138 233.585, 500.176 234, 502 234 C 503.824 234, 504.862 233.585, 504.500 233 C 504.160 232.450, 503.035 232, 502 232 C 500.965 232, 499.840 232.450, 499.500 233 M 281.978 235.349 C 281.966 235.982, 279.911 237.850, 277.411 239.500 C 272.534 242.719, 269.215 246.899, 272.554 245.618 C 276.138 244.242, 283.372 242.929, 284.654 243.421 C 285.377 243.698, 286.453 243.023, 287.043 241.919 C 287.943 240.238, 287.620 239.448, 285.059 237.055 C 283.376 235.483, 281.990 234.716, 281.978 235.349 M 302.203 244.069 C 301.267 245.758, 299.010 249.439, 297.189 252.250 C 294.363 256.611, 293.931 258.072, 294.242 262.210 C 294.661 267.777, 297.040 271.291, 299.722 270.305 C 300.700 269.946, 303.975 267.776, 307 265.483 C 329.963 248.075, 339.860 243.956, 346.385 249.088 C 350.704 252.486, 352.278 256.755, 353.108 267.325 C 353.533 272.729, 354.412 277.792, 355.062 278.575 C 355.981 279.682, 355.960 280, 354.967 280 C 354.011 280, 354.064 280.440, 355.177 281.750 C 356.905 283.783, 360 290.297, 360 291.901 C 360 292.506, 360.343 293, 360.762 293 C 361.709 293, 364.721 282.189, 365.610 275.603 C 365.974 272.910, 366.882 269.535, 367.629 268.103 C 368.376 266.671, 368.990 265.007, 368.994 264.405 C 368.997 263.803, 369.902 262.494, 371.004 261.496 C 372.996 259.693, 372.992 259.673, 370.135 257.936 C 367.212 256.158, 365 251.599, 365 247.351 C 365 245.029, 364.868 245, 354.245 245 C 348.329 245, 334.942 244.106, 324.495 243.013 C 314.048 241.920, 305.142 241.020, 304.703 241.013 C 304.265 241.006, 303.140 242.381, 302.203 244.069 M 459.750 241.716 C 458.238 241.945, 457 242.553, 457 243.066 C 457 244.048, 457.174 244.115, 460.708 244.489 C 461.923 244.618, 464.173 245.216, 465.708 245.818 C 484.302 253.113, 526.758 256.787, 530.668 251.439 C 533.216 247.955, 532.358 246.954, 527.250 247.452 C 512.968 248.845, 509.650 248.922, 500.500 248.078 C 488.419 246.963, 479.782 245.161, 480.552 243.916 C 480.863 243.412, 480.668 243, 480.118 243 C 479.568 243, 478.867 243.407, 478.559 243.904 C 478.252 244.402, 475.748 243.952, 472.990 242.904 C 468.147 241.064, 465.577 240.834, 459.750 241.716 M 421.500 243.601 C 414.350 244.352, 403.775 244.936, 398 244.897 C 378.405 244.768, 379.812 244.482, 380.556 248.445 C 380.978 250.695, 380.672 252.952, 379.672 254.956 C 378.161 257.985, 378.181 258.042, 381.321 259.648 C 383.069 260.542, 386.172 262.588, 388.216 264.194 C 390.260 265.801, 393.494 267.368, 395.403 267.678 C 398.662 268.207, 398.968 268.012, 400.445 264.477 C 402.298 260.042, 406.683 255.664, 408.553 256.382 C 409.278 256.660, 410.026 256.423, 410.215 255.856 C 410.867 253.899, 420.011 252.945, 426.915 254.113 C 430.537 254.726, 433.928 255.626, 434.450 256.113 C 434.973 256.601, 436.062 257, 436.871 257 C 437.680 257, 439.137 257.719, 440.108 258.598 C 444.332 262.421, 444.976 255.918, 441.331 246.250 C 439.483 241.349, 441.001 241.552, 421.500 243.601 M 586.030 245.220 C 582.471 245.701, 579.257 246.584, 578.887 247.182 C 578.487 247.830, 577.106 247.992, 575.477 247.584 C 569.663 246.124, 565.881 253.836, 569.615 259.535 C 571.106 261.811, 571.814 261.994, 578.865 261.927 C 583.064 261.887, 588.975 261.443, 592 260.941 C 595.025 260.439, 600.200 259.739, 603.500 259.385 C 612.560 258.413, 616.290 254.023, 613.576 247.527 L 612.165 244.150 602.332 244.248 C 596.925 244.302, 589.588 244.739, 586.030 245.220 M 219.586 250.138 C 220.090 250.954, 219.249 251.082, 216.616 250.588 C 212.409 249.799, 197 251.784, 197 253.115 C 197 253.602, 195.848 254, 194.441 254 C 192.990 254, 192.149 253.567, 192.500 253 C 193.551 251.299, 191.403 251.895, 188.635 254.073 C 186.523 255.734, 186 256.993, 186 260.418 C 186 267.360, 187.998 268.444, 199.242 267.598 C 204.334 267.215, 212.655 266.362, 217.733 265.701 C 225.606 264.677, 227.370 264.095, 229.710 261.750 C 231.219 260.238, 231.902 259, 231.227 259 C 230.464 259, 230 257.501, 230 255.035 C 230 250.445, 228.205 249, 222.507 249 C 220.051 249, 219.109 249.367, 219.586 250.138 M 458.166 260 C 458.568 262.422, 457.023 267.158, 454.824 270.247 C 453.701 271.824, 452.943 273.226, 453.141 273.361 C 453.338 273.496, 455.525 274.469, 458 275.522 C 464.356 278.226, 479.344 287.055, 480.300 288.658 C 481.430 290.555, 483.763 290.324, 484.421 288.250 C 484.726 287.288, 485.585 283.125, 486.330 279 C 487.074 274.875, 487.867 270.853, 488.092 270.062 C 488.366 269.095, 487.354 268.372, 485 267.853 C 468.784 264.283, 460.005 261.553, 458.726 259.683 C 458.162 258.858, 457.992 258.954, 458.166 260 M 332.250 269.674 C 329.148 271.839, 329.433 273.063, 332.879 272.374 C 334.516 272.047, 336.051 272.273, 336.438 272.899 C 337.424 274.495, 339 274.249, 339 272.500 C 339 271.675, 338.550 271, 338 271 C 337.450 271, 337 270.325, 337 269.500 C 337 267.595, 335.133 267.664, 332.250 269.674 M 279.607 272.582 C 278.749 274.817, 278.817 275, 280.500 275 C 281.333 275, 282 274.111, 282 273 C 282 270.616, 280.464 270.347, 279.607 272.582 M 324.496 273.007 C 323.741 274.228, 326.484 275.437, 327.952 274.530 C 328.528 274.173, 329 273.459, 329 272.941 C 329 271.680, 325.282 271.734, 324.496 273.007 M 509.027 274.967 C 504.900 276.295, 503.288 277.382, 502.468 279.388 C 501.870 280.850, 501.134 281.801, 500.833 281.499 C 500.531 281.198, 500.265 282.200, 500.241 283.726 C 500.138 290.215, 498.768 297.353, 497.031 300.445 C 495.853 302.542, 495.516 304.116, 496.116 304.716 C 497.185 305.785, 496.267 309, 494.893 309 C 494.402 309, 494 309.411, 494 309.914 C 494 310.417, 496.137 309.744, 498.750 308.418 C 501.363 307.093, 504.080 306.006, 504.790 306.004 C 507.210 305.996, 513.744 302.094, 516.177 299.202 C 520.005 294.652, 521.573 286.412, 520.011 279.051 C 518.542 272.129, 518.218 272.009, 509.027 274.967 M 218.500 290.015 C 199.026 303.357, 199.080 303.312, 198.427 306.663 C 197.563 311.095, 198.663 313.774, 202.071 315.537 C 204.717 316.905, 205.313 316.890, 208.244 315.374 C 211.766 313.553, 222.189 306.872, 223 305.916 C 223.275 305.592, 225.673 304.065, 228.328 302.523 C 239.248 296.180, 242.780 289.780, 238 285 C 234.215 281.215, 229.619 282.397, 218.500 290.015 M 313.500 289.051 C 305.800 289.439, 295.563 289.811, 290.750 289.878 C 280.994 290.014, 280.434 290.553, 283.550 296.799 C 287.296 304.309, 292.788 306.989, 317.855 313.543 C 353.239 322.793, 411.435 323.642, 460.250 315.620 C 465.665 314.730, 468.005 314.671, 468.015 315.423 C 468.026 316.175, 468.253 316.169, 468.765 315.403 C 469.169 314.800, 472.762 313.675, 476.749 312.903 L 483.998 311.500 478.249 306.900 C 472.719 302.476, 458.538 293.775, 452.682 291.214 C 450.407 290.219, 446.839 290.297, 434.182 291.622 C 425.264 292.556, 409.804 293.275, 398.339 293.289 L 378.178 293.314 377.089 295.704 C 376.490 297.019, 376 298.707, 376 299.455 C 376 300.204, 373.992 302.883, 371.537 305.408 C 367.330 309.737, 366.768 310, 361.717 310 C 357.057 310, 355.837 309.552, 352.339 306.558 C 350.007 304.562, 346.886 300.256, 344.909 296.308 C 343.034 292.564, 341.050 289.169, 340.500 288.765 C 339.393 287.952, 334.265 288.006, 313.500 289.051 M 566.189 290.039 C 562.790 293.205, 563.155 299.262, 566.904 301.932 C 568.502 303.069, 570.346 304, 571.003 304 C 571.660 304, 573.616 304.621, 575.349 305.380 C 582.479 308.503, 598.107 314, 599.854 314 C 600.886 314, 602.916 313.067, 604.365 311.927 C 607.694 309.309, 608.054 303.264, 605.043 300.539 C 602.423 298.168, 575.307 288.078, 571.439 288.034 C 569.700 288.015, 567.431 288.881, 566.189 290.039 M 242.185 315.583 C 240.942 316.454, 237.804 319.450, 235.212 322.241 C 232.621 325.032, 228.999 328.932, 227.164 330.908 C 225.329 332.883, 221.400 337.036, 218.433 340.136 C 215.465 343.236, 212.624 346.859, 212.119 348.187 C 210.042 353.651, 213.501 359, 219.112 359 C 221.246 359, 224.500 356.129, 235.391 344.633 C 242.878 336.730, 249.903 329.122, 251.002 327.725 C 253.769 324.207, 253.577 319.486, 250.545 316.455 C 247.698 313.607, 245.354 313.363, 242.185 315.583 M 548.655 321.829 C 546.518 324.190, 546.469 331.326, 548.575 333.432 C 549.441 334.298, 552.254 336.449, 554.825 338.212 C 559.387 341.340, 560.800 342.399, 563.285 344.554 C 563.953 345.134, 568.613 348.621, 573.641 352.304 C 580.040 356.991, 583.668 359, 585.736 359 C 590.750 359, 593.925 353.236, 591.713 348.149 C 590.311 344.924, 590.976 345.494, 572.223 331.445 C 555.933 319.240, 552.328 317.770, 548.655 321.829 M 500.500 323.246 C 498.300 323.793, 494.803 324.861, 492.730 325.620 C 490.656 326.379, 487.506 327.007, 485.730 327.015 C 483.953 327.024, 481.825 327.467, 481 328 C 479.874 328.728, 480.373 328.972, 483 328.980 C 484.925 328.985, 488.525 329.638, 491 330.429 C 493.475 331.220, 498.425 332.623, 502 333.546 C 505.575 334.470, 509.752 335.685, 511.282 336.247 C 512.812 336.809, 514.295 337.038, 514.578 336.756 C 514.860 336.473, 513.773 334.006, 512.161 331.273 C 510.550 328.540, 508.924 325.336, 508.548 324.152 C 507.813 321.835, 506.690 321.709, 500.500 323.246 M 313.241 331.986 C 311.747 334.379, 311.621 337, 313 337 C 313.550 337, 314 338.998, 314 341.441 C 314 343.884, 314.380 346.117, 314.844 346.403 C 315.704 346.935, 321.883 345.582, 325.500 344.070 C 328.979 342.615, 348.724 337.003, 350.652 336.921 C 353.718 336.790, 348.340 335.325, 339.776 333.959 C 335.527 333.281, 332.291 332.338, 332.585 331.863 C 332.878 331.388, 332.191 331, 331.059 331 C 329.927 331, 329 331.384, 329 331.854 C 329 332.323, 326.652 332.098, 323.782 331.354 C 316.729 329.524, 314.702 329.646, 313.241 331.986 M 281.473 345.249 C 281.080 348.137, 280.250 350.837, 279.629 351.250 C 278.808 351.796, 278.801 352.204, 279.606 352.750 C 280.214 353.163, 281.040 355.284, 281.441 357.465 C 283.171 366.863, 288.421 372.156, 299.644 375.818 C 315.180 380.888, 322.437 382.501, 349.436 386.886 C 359.868 388.581, 365.598 388.790, 394.936 388.542 C 414.067 388.381, 430.435 387.802, 433 387.195 C 435.475 386.611, 440.425 385.904, 444 385.625 C 455.500 384.729, 486.521 378.917, 498.847 375.349 C 506.383 373.168, 512.587 370.287, 515.437 367.646 C 518.352 364.945, 521.364 356.964, 519.988 355.588 C 519.086 354.686, 509.199 351.655, 498.381 348.963 C 493.802 347.823, 492.326 347.924, 484.381 349.918 C 453.676 357.624, 432.603 360.203, 400 360.245 C 370.202 360.284, 343.806 357.741, 341.750 354.633 C 341.194 353.793, 340.806 353.799, 340.247 354.659 C 338.705 357.034, 309.074 366.476, 306.113 365.536 C 302.201 364.294, 300.517 361.036, 300 353.710 L 299.500 346.622 294 344.782 C 290.975 343.770, 287.375 342.414, 286 341.768 C 284.625 341.122, 283.205 340.460, 282.844 340.296 C 282.483 340.132, 281.866 342.361, 281.473 345.249 M 267.500 433.916 C 265.850 434.328, 263.110 435.390, 261.411 436.275 C 257.808 438.153, 248.685 447.753, 243.923 454.678 C 235.007 467.643, 228.316 477.647, 227.655 479 C 226.458 481.448, 224.498 484.692, 223.337 486.143 C 222.161 487.614, 208 512.831, 208 513.455 C 208 513.664, 206.081 517.134, 203.735 521.167 C 201.390 525.200, 198.818 529.776, 198.020 531.336 C 196.222 534.851, 192.448 539, 191.048 539 C 190.463 539, 190 536.879, 190 534.200 C 190 531.560, 189.474 528.874, 188.830 528.230 C 187.956 527.356, 187.938 526.102, 188.758 523.280 C 191.523 513.759, 193.546 465.739, 191.540 457.242 C 189.869 450.167, 181.397 446.426, 169 447.291 C 157.918 448.063, 152.092 451.013, 145.406 459.236 C 141.982 463.447, 130.315 485.159, 125.381 496.500 C 122.475 503.179, 117 518.070, 117 519.293 C 117 520.012, 116.607 521.028, 116.126 521.550 C 115.646 522.072, 114.016 526.550, 112.505 531.500 C 110.993 536.450, 109.136 542.428, 108.378 544.785 C 107.620 547.142, 107 550.089, 107 551.335 C 107 552.581, 106.602 554.027, 106.117 554.550 C 105.631 555.072, 104.688 558.425, 104.021 562 C 103.354 565.575, 102.429 570.525, 101.964 573 C 100.295 581.891, 100.728 584.943, 104.106 588.099 C 107.039 590.839, 107.694 591, 115.883 591 C 127.032 591, 132 588.147, 132 581.743 C 132 580.162, 132.466 577.998, 133.035 576.934 C 133.749 575.601, 133.749 575, 133.035 575 C 131.716 575, 131.673 572.277, 132.985 571.833 C 133.527 571.650, 134.398 569.475, 134.921 567 C 135.924 562.251, 139.016 549.565, 141.014 542 C 141.668 539.525, 142.832 536.082, 143.601 534.349 C 144.371 532.616, 145 530.343, 145 529.299 C 145 528.254, 145.360 526.972, 145.800 526.450 C 146.240 525.928, 147.590 522.913, 148.800 519.750 C 150.010 516.587, 152 511.413, 153.223 508.250 C 161.786 486.097, 179.009 459.676, 182.568 463.235 C 182.870 463.537, 182.982 472.495, 182.817 483.142 C 182.653 493.789, 182.514 510.825, 182.509 521 C 182.501 538.309, 182.646 539.772, 184.762 543.734 C 188.740 551.178, 193.743 550.392, 200.500 541.259 C 204.149 536.328, 211.796 524.135, 215.087 518.003 C 216.414 515.529, 217.809 513.270, 218.187 512.982 C 218.566 512.695, 219.347 511.343, 219.925 509.980 C 222.900 502.953, 242.188 471.200, 248.860 462.347 C 255.630 453.362, 267.565 441.679, 269.343 442.298 C 270.798 442.804, 270.725 454.181, 269.246 457.283 C 268.664 458.502, 267.045 462.650, 265.649 466.500 C 261.930 476.750, 256.910 490.201, 255.946 492.500 C 254.577 495.764, 251.342 504.079, 248.943 510.500 C 247.710 513.800, 246.113 517.877, 245.394 519.561 C 244.674 521.244, 241.763 529.794, 238.923 538.561 C 236.084 547.327, 233.373 555.400, 232.898 556.500 C 230.529 561.994, 226.980 580.198, 226.367 590 C 225.711 600.494, 227.475 607.863, 232.431 615.330 C 236.593 621.600, 240.124 623.733, 242.466 621.391 C 244.836 619.021, 244.332 616.889, 240.058 611.200 C 237.405 607.669, 235.887 604.432, 235.418 601.304 C 234.298 593.833, 235.710 579.205, 238.538 568.978 C 239.979 563.765, 241.575 557.812, 242.085 555.750 C 243.169 551.355, 249.008 533.902, 252.037 526 C 253.196 522.975, 254.607 519.150, 255.171 517.500 C 255.736 515.850, 256.776 513.150, 257.483 511.500 C 258.189 509.850, 260.226 504.450, 262.008 499.500 C 263.790 494.550, 266.093 488.612, 267.124 486.305 C 268.156 483.998, 269 481.500, 269 480.755 C 269 480.010, 269.389 478.972, 269.864 478.450 C 270.338 477.927, 271.209 476.150, 271.799 474.500 C 272.388 472.850, 274.054 468.350, 275.501 464.500 C 279.120 454.870, 280.133 439.559, 277.368 436.293 C 275.179 433.706, 271.696 432.867, 267.500 433.916 M 455.556 436.945 C 452.042 437.661, 447.021 441.921, 447.005 444.200 C 447.002 444.585, 445.762 446.835, 444.250 449.200 C 440.518 455.036, 439.497 456.726, 436.371 462.250 L 433.682 467 423.379 467 C 410.630 467, 402.871 469.415, 400.425 474.145 C 398.569 477.733, 398.876 480.904, 401.220 482.374 C 402.609 483.244, 403.576 482.834, 406.257 480.236 C 408.794 477.776, 410.742 476.890, 414.537 476.468 C 417.267 476.165, 421.188 475.705, 423.250 475.447 C 427.909 474.862, 428.124 476.299, 424.270 482.270 C 422.769 484.596, 421.082 487.253, 420.520 488.173 C 419.529 489.800, 404.382 519.995, 403.050 523 C 402.247 524.812, 396.766 527.635, 383.649 532.991 L 373.798 537.013 371.649 534.281 C 370.467 532.778, 369.496 531.313, 369.492 531.024 C 369.488 530.736, 368.671 528.796, 367.678 526.713 C 366.684 524.631, 365.788 521.047, 365.686 518.750 C 365.448 513.395, 367.913 512.584, 372.135 516.630 C 375.783 520.125, 378.350 519.038, 378.801 513.806 C 379.058 510.827, 378.591 509.926, 375.618 507.658 C 372.543 505.313, 371.228 505, 364.435 505 C 358.305 505, 356.028 505.438, 353.261 507.148 C 349.336 509.574, 343.617 517.888, 342.564 522.701 C 342.011 525.225, 340.028 527.261, 333.181 532.335 C 318.639 543.112, 304.221 551, 299.065 551 C 297.240 551, 297 550.388, 297 545.742 C 297 540.271, 299.594 534.033, 304.713 527.193 C 309.518 520.774, 305.238 516.036, 293.900 515.225 C 285.080 514.594, 280.787 515.486, 277.675 518.597 C 272.825 523.448, 265.083 540.888, 265.025 547.096 C 265.011 548.524, 265.672 551.039, 266.493 552.685 C 269.940 559.594, 275.574 562, 288.311 562 C 302.674 562, 314.061 557.281, 331.801 543.976 C 336.916 540.139, 341.478 537, 341.937 537 C 342.396 537, 343.520 538.688, 344.435 540.750 C 345.349 542.813, 346.525 545.281, 347.048 546.236 C 348.748 549.337, 348.083 550.842, 342.864 555.710 C 337.697 560.529, 333.598 566.060, 331.262 571.365 C 329.764 574.766, 329.567 585, 331 585 C 331.550 585, 332 585.575, 332 586.278 C 332 587.654, 333.762 589.341, 338.500 592.500 C 341.024 594.183, 343.167 594.500, 352 594.500 L 362.500 594.500 368.252 590.651 C 373.999 586.806, 376.946 583.491, 380.079 577.344 C 381.229 575.089, 381.397 573.938, 380.622 573.617 C 379.854 573.299, 379.929 572.852, 380.859 572.200 C 383.593 570.284, 383.527 553.939, 380.792 555.629 C 380.054 556.084, 379.879 555.570, 380.267 554.088 C 380.921 551.588, 379.287 546, 377.902 546 C 377.406 546, 377 545.523, 377 544.941 C 377 544.359, 377.402 544.131, 377.894 544.434 C 378.810 545.001, 383.075 543.493, 394.284 538.639 C 396.365 537.737, 398.174 537, 398.303 537 C 398.433 537, 398.372 540.299, 398.169 544.330 C 397.733 552.955, 400.115 559.780, 405.320 564.826 C 413.324 572.584, 429.587 573.028, 445.500 565.924 C 448.964 564.378, 461.140 556.686, 463.144 554.778 C 463.890 554.068, 466.075 552.195, 468 550.615 C 469.925 549.035, 471.737 546.821, 472.028 545.695 C 472.669 543.208, 475 542.205, 475 544.417 C 475 545.288, 474.550 546, 474 546 C 473.450 546, 473 547.280, 473 548.845 C 473 557.747, 486.987 557.568, 503.566 548.453 C 506.280 546.961, 509.175 545.194, 510 544.526 C 512.291 542.672, 534.900 529.617, 540.066 527.166 C 545.979 524.360, 547 524.435, 547 527.675 C 547 530.244, 543.245 542.251, 540.488 548.500 C 539.760 550.150, 538.279 553.577, 537.197 556.116 C 536.116 558.655, 534.166 561.491, 532.865 562.419 C 531.564 563.346, 526.220 567.119, 520.990 570.802 C 492.349 590.973, 482.204 601.335, 478.033 614.679 C 476.895 618.319, 476.949 619.416, 478.451 623.169 C 480.667 628.707, 486.273 633.701, 491.209 634.535 C 502.536 636.449, 517.959 629.884, 531.047 617.578 C 537.328 611.672, 550.519 594.364, 554 587.459 C 555.375 584.731, 556.725 582.275, 557.001 582 C 557.684 581.318, 561.654 573.148, 565.991 563.500 C 572.562 548.879, 571.174 550.195, 590.190 540.579 C 599.710 535.765, 608.063 531.360, 608.750 530.791 C 610.673 529.197, 610.242 525.200, 608.018 524.009 C 606.413 523.151, 604.078 523.846, 595.771 527.654 C 584.629 532.761, 579.474 535.518, 576.750 537.827 C 575.616 538.788, 575 538.903, 575 538.155 C 575 537.520, 575.398 537, 575.883 537 C 577.130 537, 578.001 533.119, 576.906 532.442 C 575.628 531.652, 575.773 525, 577.068 525 C 578.755 525, 574.032 518.990, 570.800 517.025 C 569.193 516.047, 565.220 514.683, 561.971 513.994 C 556.907 512.919, 555.121 512.978, 549.442 514.404 C 542.572 516.130, 532.421 520.600, 525.500 524.947 C 523.300 526.329, 520.717 527.918, 519.759 528.480 C 518.802 529.041, 514.077 531.966, 509.259 534.981 C 495.957 543.304, 484 548.741, 484 546.468 C 484 545.655, 491.095 532.925, 492.562 531.105 C 504.420 516.401, 505.327 514.727, 502.800 512.200 C 501.005 510.405, 495.909 510.758, 492.356 512.925 C 490.626 513.979, 486.758 517.915, 483.760 521.671 C 469.715 539.269, 445.641 556.964, 435.705 556.994 C 434.717 556.997, 432.805 555.895, 431.455 554.545 C 429.395 552.486, 429 551.127, 429 546.104 C 429 542.812, 429.462 539.833, 430.027 539.484 C 430.591 539.135, 430.953 538.321, 430.830 537.675 C 430.593 536.420, 431.565 532.771, 433.008 529.500 C 433.494 528.400, 434.857 525.250, 436.038 522.500 C 439.481 514.485, 446.264 501.079, 450.802 493.326 C 453.111 489.380, 455 485.667, 455 485.076 C 455 484.484, 455.450 484, 456 484 C 456.550 484, 457 483.395, 457 482.655 C 457 479.135, 460.252 478.248, 475 477.745 C 491.420 477.185, 497.578 475.528, 498.617 471.390 C 500.009 465.845, 497.538 464.940, 488 467.500 C 484.975 468.312, 478.591 468.982, 473.813 468.988 L 465.126 469 472.105 457.252 C 479.858 444.203, 480.331 441.644, 475.500 438.883 C 471.958 436.858, 461.142 435.806, 455.556 436.945 M 614.655 468.829 C 613.612 469.981, 612.976 472.479, 612.936 475.579 C 612.900 478.285, 612.288 483.200, 611.574 486.500 C 610.801 490.078, 610.625 493.179, 611.138 494.182 C 612.297 496.450, 615.490 497.343, 617.876 496.067 C 622.219 493.742, 626.514 470.202, 623 467.980 C 620.568 466.441, 616.435 466.862, 614.655 468.829 M 296.541 487.739 C 293.841 490.651, 292.625 494.890, 293.168 499.498 C 293.436 501.765, 294.277 502.582, 297.500 503.706 C 304.520 506.152, 310.522 503.484, 315.311 495.785 C 319.652 488.808, 316.439 485, 306.212 485 C 299.724 485, 298.852 485.247, 296.541 487.739 M 639.917 508.250 C 637.566 510.052, 634.355 513.950, 632.708 517 C 630.230 521.590, 629.745 523.623, 629.774 529.283 C 629.793 533.013, 630.210 536.613, 630.700 537.283 C 631.190 537.952, 632.637 541.115, 633.917 544.312 L 636.242 550.123 629.871 556.467 C 626.367 559.957, 622.038 565.585, 620.250 568.974 C 615.004 578.921, 616.361 585.476, 624.913 591.500 C 628.970 594.357, 629.656 594.500, 639.336 594.500 C 650.906 594.500, 654.989 592.985, 661.557 586.258 C 666.150 581.554, 670.175 573.195, 668.949 570.905 C 668.416 569.908, 668.528 568.063, 669.235 566.189 C 670.159 563.740, 670.110 562.574, 668.996 560.493 C 667.935 558.510, 667.867 557.443, 668.714 556.086 C 669.562 554.728, 669.494 553.718, 668.432 551.898 C 667.662 550.579, 666.747 548.712, 666.399 547.750 C 666.051 546.788, 665.369 546, 664.883 546 C 664.398 546, 664 545.523, 664 544.941 C 664 544.359, 664.465 544.169, 665.033 544.521 C 666.236 545.264, 683.757 538.360, 692.500 533.699 C 698.743 530.370, 700.458 527.461, 697.954 524.445 C 695.995 522.084, 694.328 522.542, 679.500 529.517 C 674.701 531.774, 660.770 537.108, 660.503 536.790 C 660.369 536.630, 658.549 532.900, 656.460 528.500 C 654.371 524.100, 652.288 520.350, 651.831 520.167 C 650.525 519.643, 650.858 516.999, 652.429 515.429 C 654.534 513.323, 657.195 513.713, 659.855 516.517 C 663.816 520.693, 666.744 519.003, 666.160 512.877 C 665.618 507.201, 661.581 505, 651.710 505 C 644.723 505, 643.837 505.244, 639.917 508.250 M 346.051 566.560 C 339.101 574.100, 337.364 581, 342.416 581 C 347.263 581, 351.991 573.968, 351.996 566.750 C 351.998 564.138, 351.607 562, 351.127 562 C 350.647 562, 348.363 564.052, 346.051 566.560 M 635.305 564.250 C 628.063 572.223, 625.110 579.337, 628.502 580.639 C 633.368 582.506, 638.604 576.135, 639.682 567.038 C 640.364 561.280, 638.868 560.327, 635.305 564.250 M 526.563 575.879 C 525.744 577.462, 524.495 578.994, 523.787 579.283 C 521.441 580.241, 501.586 595.996, 496.444 600.979 C 491.395 605.873, 486 614.868, 486 618.395 C 486 621.254, 492.136 619.846, 497.279 615.807 C 505.429 609.408, 516.564 595.717, 523.556 583.500 C 525.130 580.750, 527.223 577.912, 528.209 577.193 C 530.112 575.805, 530.659 573, 529.026 573 C 528.490 573, 527.381 574.295, 526.563 575.879 M 262.243 643.157 C 261.368 644.032, 261 648.643, 261 658.733 L 261 673.066 272.169 672.783 C 280.622 672.569, 283.449 672.162, 283.798 671.111 C 284.078 670.268, 283.815 669.996, 283.130 670.420 C 282.475 670.825, 282 670.463, 282 669.559 C 282 668.702, 282.505 668, 283.122 668 C 283.873 668, 283.810 667.476, 282.934 666.420 C 282.005 665.301, 280.146 664.899, 276.561 665.044 C 273.777 665.156, 270.952 665.192, 270.283 665.124 C 269.425 665.037, 268.982 661.681, 268.783 653.750 C 268.502 642.573, 268.484 642.498, 265.993 642.207 C 264.614 642.046, 262.927 642.473, 262.243 643.157 M 357.639 642.872 C 356.616 643.275, 355.219 645.156, 354.535 647.052 C 353.851 648.948, 351.825 654.550, 350.034 659.500 C 345.131 673.045, 345.134 673, 349.161 673 C 351.318 673, 353.180 672.271, 354.268 671 C 355.520 669.538, 357.218 669, 360.584 669 C 364.346 669, 365.283 669.365, 365.710 671 C 366.123 672.579, 367.074 673, 370.228 673 L 374.223 673 373.528 669.250 C 373.147 667.188, 372.243 664.150, 371.520 662.500 C 370.796 660.850, 368.966 655.992, 367.452 651.705 C 364.292 642.757, 362.359 641.017, 357.639 642.872 M 434.502 643.641 C 432.453 645.690, 432.617 647.692, 435 649.732 C 436.633 651.130, 437 652.682, 437 658.187 C 437 663.972, 436.707 665.086, 434.940 666.032 C 433.489 666.809, 432.972 667.927, 433.190 669.817 C 433.497 672.478, 433.565 672.500, 441.500 672.500 C 449.413 672.500, 449.503 672.471, 449.807 669.847 C 450.017 668.032, 449.436 666.718, 447.968 665.690 C 446.072 664.362, 445.861 663.415, 446.161 657.591 C 446.347 653.963, 446.275 650.845, 446 650.662 C 445.725 650.478, 446.008 650.444, 446.628 650.586 C 449.524 651.248, 451.364 644.966, 448.750 643.341 C 446.325 641.833, 436.094 642.049, 434.502 643.641 M 515.955 643.011 L 513.500 643.590 513.500 658.045 L 513.500 672.500 517.500 672.500 L 521.500 672.500 521.531 666 C 521.549 662.425, 521.661 657.560, 521.781 655.190 L 522 650.879 525.742 651.190 C 530.611 651.594, 531.381 654.323, 527.051 655.832 C 524.474 656.731, 524.003 657.408, 524.019 660.198 C 524.030 662.107, 525.296 665.503, 527.021 668.250 C 529.770 672.627, 530.317 673, 534.002 673 C 538.663 673, 539.020 671.844, 535.961 666.659 L 533.922 663.203 536.461 659.462 C 537.858 657.404, 539 654.869, 539 653.828 C 539 650.447, 536.367 645.529, 533.905 644.309 C 531.188 642.963, 519.680 642.131, 515.955 643.011 M 358.651 653.468 C 358.341 654.275, 358.519 655.203, 359.046 655.529 C 359.650 655.902, 359.618 656.846, 358.960 658.076 C 358.144 659.599, 358.263 660.164, 359.500 660.638 C 361.813 661.526, 362.143 660.746, 361.405 656.134 C 360.729 651.901, 359.652 650.859, 358.651 653.468" stroke="none" fill="#bc0404" fill-rule="evenodd"/></svg>